<svg width="68" height="42" viewBox="0 0 68 42" fill="none" xmlns="http://www.w3.org/2000/svg">
<g clip-path="url(#clip0)">
<path d="M59.7101 40H8.35058C4.83618 40 2 37.0542 2 33.4039V7.59606C2 3.94581 4.83618 1 8.35058 1H59.6484C63.1628 1 65.999 3.94581 65.999 7.59606V33.4039C66.0607 37.0542 63.2245 40 59.7101 40Z" fill="#BBE288"/>
<path d="M60.1044 2.22026C63.2259 2.22026 65.7966 4.81057 65.7966 7.95595V34.0441C65.7966 37.1894 63.2259 39.7797 60.1044 39.7797H7.89559C4.77408 39.7797 2.20342 37.1894 2.20342 34.0441V7.95595C2.20342 4.81057 4.77408 2.22026 7.89559 2.22026H60.1044ZM60.1044 0H7.89559C3.54995 0 0 3.57709 0 7.95595V34.0441C0 38.4229 3.54995 42 7.89559 42H60.1044C64.45 42 68 38.4229 68 34.0441V7.95595C68 3.57709 64.45 0 60.1044 0Z" fill="#43A047"/>
<path d="M2.20343 21.0309V34.1057C2.20343 37.2511 4.77409 39.8414 7.8956 39.8414H60.1044C63.2259 39.8414 65.7966 37.2511 65.7966 34.1057V21.0309H2.20343Z" fill="#8BC34A"/>
<path d="M11.3885 37.4839V27.1703H17.5914V28.3785H12.6704V31.5462H15.9265V32.7544H12.6704V37.4839H11.3885ZM23.1497 37.6607C22.3737 37.6607 21.6911 37.5084 21.1017 37.2039C20.5222 36.8896 20.0654 36.4722 19.7315 35.9516C19.4073 35.4212 19.1667 34.8564 19.0095 34.2572C18.8524 33.6482 18.7738 33.0049 18.7738 32.3271C18.7738 31.6494 18.8524 31.0109 19.0095 30.4117C19.1667 29.8027 19.4073 29.2379 19.7315 28.7174C20.0654 28.1869 20.5222 27.7695 21.1017 27.465C21.6911 27.1507 22.3737 26.9935 23.1497 26.9935C23.7783 26.9935 24.3431 27.0967 24.8441 27.3029C25.3548 27.5092 25.7723 27.7842 26.0964 28.128C26.4304 28.4718 26.7054 28.8794 26.9215 29.3509C27.1474 29.8224 27.3046 30.3037 27.393 30.7948C27.4912 31.2859 27.5403 31.7967 27.5403 32.3271C27.5403 32.8575 27.4912 33.3683 27.393 33.8594C27.3046 34.3505 27.1474 34.8318 26.9215 35.3033C26.7054 35.7748 26.4304 36.1824 26.0964 36.5262C25.7723 36.87 25.3548 37.145 24.8441 37.3513C24.3431 37.5576 23.7783 37.6607 23.1497 37.6607ZM21.7205 36.0989C22.1331 36.3347 22.6094 36.4525 23.1497 36.4525C23.6899 36.4525 24.1663 36.3298 24.5788 36.0842C24.9914 35.8288 25.3106 35.4948 25.5365 35.0823C25.7625 34.6698 25.9294 34.2327 26.0375 33.771C26.1455 33.2995 26.1996 32.8182 26.1996 32.3271C26.1996 31.6002 26.1062 30.9421 25.9196 30.3528C25.7428 29.7536 25.4138 29.2429 24.9325 28.8205C24.461 28.3981 23.8667 28.1869 23.1497 28.1869C22.6094 28.1869 22.1331 28.3146 21.7205 28.57C21.3178 28.8156 21.0035 29.1495 20.7776 29.5719C20.5516 29.9845 20.3798 30.4216 20.2619 30.8832C20.1538 31.3449 20.0998 31.8262 20.0998 32.3271C20.0998 32.8575 20.1538 33.3585 20.2619 33.8299C20.3699 34.3014 20.5369 34.7385 20.7628 35.1412C20.9986 35.544 21.3178 35.8632 21.7205 36.0989ZM33.9122 37.6607C33.1362 37.6607 32.4535 37.5084 31.8642 37.2039C31.2847 36.8896 30.8279 36.4722 30.494 35.9516C30.1698 35.4212 29.9292 34.8564 29.772 34.2572C29.6148 33.6482 29.5363 33.0049 29.5363 32.3271C29.5363 31.6494 29.6148 31.0109 29.772 30.4117C29.9292 29.8027 30.1698 29.2379 30.494 28.7174C30.8279 28.1869 31.2847 27.7695 31.8642 27.465C32.4535 27.1507 33.1362 26.9935 33.9122 26.9935C34.5408 26.9935 35.1056 27.0967 35.6065 27.3029C36.1173 27.5092 36.5348 27.7842 36.8589 28.128C37.1929 28.4718 37.4679 28.8794 37.684 29.3509C37.9099 29.8224 38.0671 30.3037 38.1555 30.7948C38.2537 31.2859 38.3028 31.7967 38.3028 32.3271C38.3028 32.8575 38.2537 33.3683 38.1555 33.8594C38.0671 34.3505 37.9099 34.8318 37.684 35.3033C37.4679 35.7748 37.1929 36.1824 36.8589 36.5262C36.5348 36.87 36.1173 37.145 35.6065 37.3513C35.1056 37.5576 34.5408 37.6607 33.9122 37.6607ZM32.483 36.0989C32.8955 36.3347 33.3719 36.4525 33.9122 36.4525C34.4524 36.4525 34.9288 36.3298 35.3413 36.0842C35.7539 35.8288 36.0731 35.4948 36.299 35.0823C36.5249 34.6698 36.6919 34.2327 36.8 33.771C36.908 33.2995 36.962 32.8182 36.962 32.3271C36.962 31.6002 36.8687 30.9421 36.6821 30.3528C36.5053 29.7536 36.1762 29.2429 35.6949 28.8205C35.2235 28.3981 34.6292 28.1869 33.9122 28.1869C33.3719 28.1869 32.8955 28.3146 32.483 28.57C32.0803 28.8156 31.766 29.1495 31.54 29.5719C31.3141 29.9845 31.1422 30.4216 31.0244 30.8832C30.9163 31.3449 30.8623 31.8262 30.8623 32.3271C30.8623 32.8575 30.9163 33.3585 31.0244 33.8299C31.1324 34.3014 31.2994 34.7385 31.5253 35.1412C31.761 35.544 32.0803 35.8632 32.483 36.0989ZM40.7408 27.1703H43.5549C44.3996 27.1703 45.1412 27.3177 45.7797 27.6123C46.4181 27.907 46.9191 28.3048 47.2825 28.8058C47.6459 29.3067 47.9111 29.8519 48.0781 30.4412C48.2549 31.0305 48.3433 31.6592 48.3433 32.3271C48.3433 32.9656 48.2598 33.5746 48.0928 34.1541C47.9357 34.7238 47.6803 35.2689 47.3267 35.7895C46.9829 36.3003 46.482 36.7128 45.8239 37.0271C45.1658 37.3316 44.3898 37.4839 43.4959 37.4839H40.7408V27.1703ZM43.658 36.2905C44.267 36.2905 44.7974 36.1775 45.2493 35.9516C45.7109 35.7158 46.0645 35.4015 46.3101 35.0086C46.5556 34.6059 46.7324 34.1835 46.8405 33.7415C46.9584 33.2995 47.0173 32.828 47.0173 32.3271C47.0173 31.6199 46.9142 30.9765 46.7079 30.397C46.5016 29.8175 46.148 29.3313 45.6471 28.9384C45.1461 28.5455 44.5371 28.349 43.8201 28.349H42.0226V36.2905H43.658Z" fill="white"/>
<path d="M16.4469 11.0337C16.1817 11.0061 15.8392 10.9923 15.4194 10.9923H12.9087V15.7983H10.6382V4.71962C10.7874 4.73067 10.9586 4.73896 11.152 4.74448L11.7652 4.76106C12.185 4.7721 12.6214 4.77763 13.0744 4.77763C14.4333 4.77763 15.7315 4.75553 16.9689 4.71134C16.9082 5.19746 16.8778 5.84655 16.8778 6.6586C16.8778 6.74699 16.8833 6.81328 16.8943 6.85747L16.8778 6.88233C16.585 6.79947 16.1762 6.75804 15.6514 6.75804H12.9087V9.03675H15.3282C15.9359 9.03675 16.3005 9.02018 16.422 8.98703L16.4469 11.0337ZM22.6698 11.5143C22.5041 11.5254 22.3273 11.5309 22.1395 11.5309C21.9517 11.5309 21.6727 11.5171 21.3026 11.4895V15.7983H19.1068V4.71962C19.8801 4.62019 20.8303 4.57047 21.9572 4.57047C23.4929 4.57047 24.6364 4.85497 25.3877 5.42395C26.1445 5.98742 26.5229 6.86023 26.5229 8.0424C26.5229 8.95941 26.1777 9.74384 25.4872 10.3957C25.2607 10.6056 25.001 10.7879 24.7083 10.9426L26.3986 14.5057C26.7301 15.2404 26.9842 15.6768 27.161 15.8149L27.1195 15.8563C26.5837 15.7679 25.7413 15.7707 24.5922 15.8646L22.6698 11.5143ZM22.1147 6.52602C21.8329 6.52602 21.5623 6.53983 21.3026 6.56745V9.73279C21.5733 9.77146 21.8909 9.7908 22.2555 9.7908C22.6201 9.7908 22.9267 9.76041 23.1753 9.69965C23.4239 9.63336 23.6393 9.53392 23.8216 9.40134C24.2138 9.10856 24.41 8.66939 24.41 8.08383C24.41 7.49827 24.2056 7.08672 23.7968 6.84918C23.4156 6.63374 22.8549 6.52602 22.1147 6.52602ZM34.544 13.8096C34.8865 13.8096 35.124 13.7765 35.2566 13.7102L35.2898 13.7185L35.2069 15.7983H29.0005V4.71962C29.1497 4.73067 29.3154 4.73896 29.4977 4.74448L30.0777 4.76106C30.4644 4.7721 30.8843 4.77763 31.3372 4.77763C32.6023 4.77763 33.8535 4.75553 35.0909 4.71134C35.0301 5.19746 34.9997 5.84655 34.9997 6.6586C34.9997 6.74699 35.0053 6.81328 35.0163 6.85747L34.9997 6.88233C34.7125 6.79947 34.3037 6.75804 33.7734 6.75804H31.1632V8.87102H33.1271C33.7347 8.87102 34.0993 8.85445 34.2208 8.82131L34.2457 10.868C33.9805 10.8404 33.638 10.8266 33.2182 10.8266H31.1632V13.8096H34.544ZM44.156 5.39081L43.9986 7.82696L43.9406 7.84353C43.5318 7.23035 42.8358 6.83261 41.8525 6.65032C41.5431 6.58955 41.2448 6.55917 40.9575 6.55917C40.6758 6.55917 40.4328 6.58403 40.2284 6.63374C40.0295 6.68346 39.8582 6.75527 39.7146 6.84918C39.4108 7.04805 39.2589 7.30769 39.2589 7.62809C39.2589 8.04793 39.3915 8.3628 39.6566 8.57272C39.9881 8.82683 40.5377 9.00637 41.3056 9.11132C42.0734 9.21076 42.6894 9.34886 43.1534 9.52564C43.6174 9.70241 43.9986 9.92614 44.2969 10.1968C44.8604 10.705 45.1421 11.4232 45.1421 12.3512C45.1421 13.5666 44.6836 14.5029 43.7666 15.1603C42.9821 15.7237 41.9933 16.0055 40.8001 16.0055C39.8389 16.0055 38.8888 15.8232 37.9496 15.4586C37.6403 15.337 37.3696 15.1962 37.1376 15.036L37.2287 12.2684L37.2619 12.2435C37.9469 13.4257 39.071 14.0168 40.6344 14.0168C41.7447 14.0168 42.4795 13.7488 42.8385 13.213C42.9601 13.0307 43.0208 12.8291 43.0208 12.6081C43.0208 12.3816 42.9849 12.1966 42.9131 12.0529C42.8413 11.9038 42.7225 11.7767 42.5568 11.6718C42.2364 11.4619 41.6978 11.321 40.941 11.2492C40.1842 11.1774 39.5655 11.042 39.0849 10.8431C38.6043 10.6443 38.2203 10.3985 37.9331 10.1057C37.4138 9.57535 37.1542 8.83512 37.1542 7.88496C37.1542 6.90166 37.4994 6.10619 38.1899 5.49853C38.8915 4.87982 39.8361 4.57047 41.0238 4.57047C42.2171 4.57047 43.2611 4.84392 44.156 5.39081ZM49.6332 15.848C49.1029 15.8149 48.4732 15.7983 47.744 15.7983H47.4788V4.7362C47.8213 4.76382 48.0644 4.77763 48.208 4.77763H48.5477C48.9841 4.77763 49.346 4.75553 49.6332 4.71134V9.1279H53.5278V4.7362C53.9863 4.76382 54.431 4.77763 54.8618 4.77763C55.2982 4.77763 55.5717 4.75553 55.6822 4.71134V15.848C55.417 15.8149 54.8922 15.7983 54.1078 15.7983H53.5278V11.1166H49.6332V15.848Z" fill="#43A047"/>
<path d="M51.7192 33.5506C49.0261 26.0881 56.1873 23.9912 56.1873 23.9912C56.1873 23.9912 59.1252 30.837 51.7192 33.5506Z" fill="white"/>
<path d="M54.9631 33.9207C59.7984 30.467 62.7363 35.2775 62.7363 35.2775C62.7363 35.2775 58.3295 38.793 54.9631 33.9207Z" fill="white"/>
</g>
<defs>
<clipPath id="clip0">
<rect width="68" height="42" fill="white"/>
</clipPath>
</defs>
</svg>
