<svg width="24" height="24" viewBox="0 0 24 24" fill="none" xmlns="http://www.w3.org/2000/svg">
<path id='test' d="M6.75 21.75C7.57843 21.75 8.25 21.0784 8.25 20.25C8.25 19.4216 7.57843 18.75 6.75 18.75C5.92157 18.75 5.25 19.4216 5.25 20.25C5.25 21.0784 5.92157 21.75 6.75 21.75Z" fill="#162336"/>
<path id='test2' d="M18 21.75C18.8284 21.75 19.5 21.0784 19.5 20.25C19.5 19.4216 18.8284 18.75 18 18.75C17.1716 18.75 16.5 19.4216 16.5 20.25C16.5 21.0784 17.1716 21.75 18 21.75Z" fill="#162336"/>
<path id='test3' d="M21.2531 5.78888C21.1124 5.62 20.9364 5.48416 20.7373 5.39102C20.5383 5.29789 20.3212 5.24974 20.1014 5.25H4.37769L3.91827 2.73093C3.85537 2.38542 3.67319 2.07295 3.4035 1.848C3.13381 1.62305 2.79372 1.49989 2.44254 1.5H0.75C0.551088 1.5 0.360322 1.57902 0.21967 1.71967C0.0790176 1.86032 0 2.05109 0 2.25C0 2.44891 0.0790176 2.63968 0.21967 2.78033C0.360322 2.92098 0.551088 3 0.75 3H2.44263L3.00413 6.07942C3.00811 6.11693 3.0149 6.15408 3.02445 6.19057L4.81668 16.0191C4.87957 16.3646 5.06173 16.677 5.3314 16.902C5.60108 17.1269 5.94115 17.2501 6.29233 17.25H18.466C18.8174 17.2501 19.1576 17.1269 19.4273 16.9017C19.6971 16.6766 19.8792 16.3639 19.9418 16.0182L21.5772 7.0182C21.6168 6.80206 21.6083 6.57986 21.5522 6.36739C21.4962 6.15492 21.3941 5.9574 21.2531 5.78888Z" fill="#162336"/>
</svg>
